<svg width="892" height="374" viewBox="0 0 892 374" fill="none" xmlns="http://www.w3.org/2000/svg">
<path d="M59.7438 171.534C40.7505 171.534 26.0094 165.03 15.5206 152.022C5.17354 138.871 0 119.716 0 94.558C0 78.2623 2.83482 64.3252 8.50445 52.7467C14.3158 41.1681 22.0407 32.4485 31.6791 26.5877C41.4592 20.727 52.2315 17.7966 63.996 17.7966C73.4926 17.7966 81.5719 19.2261 88.2337 22.085C95.0372 24.8009 101.486 29.0893 107.581 34.95L93.7616 49.316C89.2259 45.1706 84.6193 42.1687 79.9418 40.3105C75.4061 38.3092 70.3035 37.3086 64.6338 37.3086C53.2946 37.3086 43.9397 41.9543 36.5691 51.2457C29.3404 60.3942 25.726 74.8316 25.726 94.558C25.726 114.856 28.5608 129.58 34.2304 138.728C40.0418 147.734 48.9006 152.236 60.8068 152.236C69.8782 152.236 77.9575 150.164 85.0445 146.018V105.279H60.169L57.6177 86.1958H109.07V158.026C101.557 162.314 93.8324 165.673 85.895 168.103C78.0992 170.39 69.3821 171.534 59.7438 171.534Z" fill="#EAEAEA"/>
<path d="M224.434 141.087C224.434 145.375 225.072 148.591 226.348 150.735C227.624 152.737 229.821 154.238 232.939 155.238L227.411 171.534C215.647 170.104 207.922 164.887 204.236 155.881C200.126 161.027 194.952 164.958 188.716 167.674C182.621 170.247 175.888 171.534 168.518 171.534C157.178 171.534 148.178 168.318 141.516 161.885C134.854 155.453 131.523 146.947 131.523 136.369C131.523 124.505 136.13 115.357 145.343 108.924C154.698 102.491 167.88 99.2752 184.889 99.2752H200.835V91.985C200.835 84.8378 198.708 79.6203 194.456 76.3326C190.204 73.0448 184.038 71.401 175.959 71.401C171.99 71.401 167.384 71.9013 162.139 72.9019C156.895 73.9025 151.58 75.3319 146.193 77.1902L140.24 60.2513C153.706 55.1052 166.817 52.5322 179.573 52.5322C194.456 52.5322 205.654 55.82 213.166 62.3954C220.678 68.9709 224.434 78.3338 224.434 90.4841V141.087ZM175.534 153.952C180.495 153.952 185.243 152.665 189.779 150.092C194.456 147.519 198.142 143.945 200.835 139.371V114.284H187.653C176.88 114.284 169.014 116.143 164.053 119.859C159.092 123.433 156.611 128.65 156.611 135.512C156.611 141.515 158.171 146.09 161.289 149.234C164.549 152.379 169.297 153.952 175.534 153.952Z" fill="#EAEAEA"/>
<path d="M289.836 69.0424C293.663 63.7534 298.198 59.6795 303.443 56.8206C308.829 53.9617 314.569 52.5322 320.664 52.5322C334.98 52.5322 345.54 57.7497 352.343 68.1847C359.147 78.6197 362.549 93.2001 362.549 111.926C362.549 129.651 358.58 144.017 350.642 155.024C342.847 166.03 331.862 171.534 317.688 171.534C305.215 171.534 295.434 166.888 288.347 157.597L287.072 168.746H266.023V10.0776L289.836 7.2902V69.0424ZM311.947 153.308C320.168 153.308 326.405 149.949 330.657 143.231C335.051 136.369 337.248 126.006 337.248 112.14C337.248 97.8458 335.264 87.4108 331.295 80.8353C327.468 74.2599 321.727 70.9721 314.073 70.9721C309.254 70.9721 304.718 72.4731 300.466 75.4749C296.356 78.4767 292.812 82.4077 289.836 87.2678V140.229C295.505 148.949 302.876 153.308 311.947 153.308Z" fill="#EAEAEA"/>
<path d="M473.024 52.7467C478.835 52.7467 484.505 53.6758 490.032 55.5341L485.993 97.3455H468.984V74.1884C461.188 74.3313 454.385 77.4761 448.573 83.6227C442.904 89.7694 438.368 98.4175 434.966 109.567V151.593H457.503V168.746H394.57V151.593H411.154V72.6875H394.57V55.5341H429.226L433.478 81.693C437.872 71.9727 443.187 64.754 449.424 60.0368C455.802 55.1767 463.669 52.7467 473.024 52.7467Z" fill="#EAEAEA"/>
<path d="M565.852 0C570.387 0 574.073 1.50092 576.907 4.50277C579.884 7.36166 581.372 10.9353 581.372 15.2236C581.372 19.512 579.884 23.0856 576.907 25.9445C574.073 28.8034 570.387 30.2328 565.852 30.2328C561.174 30.2328 557.418 28.8034 554.583 25.9445C551.748 23.0856 550.331 19.512 550.331 15.2236C550.331 10.7923 551.748 7.14725 554.583 4.28835C557.56 1.42945 561.316 0 565.852 0ZM582.223 151.164H612.839V168.746H525.03V151.164H558.41V73.1163H526.093V55.5341H582.223V151.164Z" fill="#EAEAEA"/>
<path d="M668.247 119.859C668.956 130.866 672.074 139.157 677.602 144.732C683.272 150.164 690.359 152.88 698.863 152.88C704.108 152.88 709.069 152.093 713.746 150.521C718.565 148.806 723.455 146.304 728.416 143.016L738.622 157.597C733.377 162.028 727.211 165.459 720.124 167.889C713.037 170.319 705.596 171.534 697.8 171.534C680.65 171.534 667.326 166.173 657.829 155.453C648.333 144.589 643.584 130.151 643.584 112.14C643.584 100.848 645.64 90.6985 649.75 81.693C653.86 72.5445 659.814 65.3973 667.609 60.2513C675.405 55.1052 684.477 52.5322 694.824 52.5322C709.706 52.5322 721.471 57.6068 730.117 67.7559C738.905 77.762 743.299 91.5562 743.299 109.138C743.299 113.427 743.086 117 742.661 119.859H668.247ZM695.036 70.3289C687.382 70.3289 681.146 73.1163 676.326 78.6911C671.507 84.266 668.743 92.5568 668.035 103.564H720.124C719.841 92.8427 717.573 84.6234 713.321 78.9056C709.069 73.1878 702.974 70.3289 695.036 70.3289Z" fill="#EAEAEA"/>
<path d="M825.284 137.87C825.284 147.448 830.953 152.236 842.293 152.236C847.962 152.236 853.915 150.95 860.152 148.377L866.105 165.101C858.31 169.39 848.671 171.534 837.19 171.534C825.993 171.534 817.205 168.389 810.826 162.099C804.59 155.667 801.471 146.876 801.471 135.726V27.6598H767.666V10.0776H825.284V137.87Z" fill="#EAEAEA"/>
<path d="M237.161 273.502H296.295V302.426H237.161V369.833H196.842V199.967H308.025L304.115 228.646H237.161V273.502Z" fill="#EF0000"/>
<path d="M443.303 332.33C443.303 337.069 443.955 340.583 445.258 342.87C446.561 345.158 448.761 346.874 451.856 348.018L443.792 373.51C435.973 372.693 429.456 370.977 424.243 368.362C419.03 365.584 414.958 361.581 412.025 356.352C407.138 362.071 400.948 366.483 393.454 369.588C385.961 372.529 377.978 374 369.507 374C356.149 374 345.479 370.242 337.496 362.725C329.514 355.044 325.523 345.158 325.523 333.066C325.523 319.012 331.062 308.145 342.139 300.465C353.217 292.621 368.774 288.7 388.811 288.7H406.161V284.042C406.161 270.643 397.608 263.943 380.503 263.943C376.105 263.943 370.566 264.596 363.887 265.904C357.371 267.048 351.018 268.682 344.827 270.806L336.03 245.069C344.338 241.964 352.972 239.595 361.932 237.96C371.055 236.163 379.282 235.264 386.612 235.264C424.406 235.264 443.303 250.625 443.303 281.346V332.33ZM382.703 346.302C387.101 346.302 391.499 345.076 395.898 342.625C400.459 340.011 403.88 336.497 406.161 332.085V310.76H396.631C375.779 310.76 365.353 317.296 365.353 330.369C365.353 335.435 366.819 339.357 369.752 342.135C372.847 344.913 377.164 346.302 382.703 346.302Z" fill="#EF0000"/>
<path d="M579.559 235.754C587.379 235.754 594.547 237.062 601.063 239.676L593.976 294.092H569.541V270.071C562.373 271.378 556.02 275.3 550.481 281.836C544.942 288.373 540.625 296.625 537.53 306.593V343.851H563.187V369.833H481.816V343.851H498.921V265.413H481.816V239.676H528.489L535.331 268.845C540.055 257.733 546.001 249.481 553.169 244.088C560.337 238.532 569.133 235.754 579.559 235.754Z" fill="#EF0000"/>
<path d="M683.072 171.534C689.751 171.534 695.208 173.658 699.444 177.907C703.679 181.992 705.797 187.14 705.797 193.349C705.797 199.722 703.679 204.951 699.444 209.037C695.208 213.122 689.751 215.165 683.072 215.165C676.392 215.165 670.854 213.122 666.455 209.037C662.22 204.788 660.102 199.559 660.102 193.349C660.102 187.14 662.22 181.992 666.455 177.907C670.854 173.658 676.392 171.534 683.072 171.534ZM706.286 343.36H739.518V369.833H631.023V343.36H667.677V266.149H632.245V239.676H706.286V343.36Z" fill="#EF0000"/>
<path d="M882.861 332.33C882.861 337.069 883.512 340.583 884.816 342.87C886.119 345.158 888.318 346.874 891.413 348.018L883.349 373.51C875.53 372.693 869.014 370.977 863.801 368.362C858.588 365.584 854.515 361.581 851.583 356.352C846.696 362.071 840.505 366.483 833.012 369.588C825.518 372.529 817.536 374 809.065 374C795.706 374 785.036 370.242 777.054 362.725C769.071 355.044 765.08 345.158 765.08 333.066C765.08 319.012 770.619 308.145 781.697 300.465C792.774 292.621 808.332 288.7 828.369 288.7H845.718V284.042C845.718 270.643 837.166 263.943 820.061 263.943C815.662 263.943 810.124 264.596 803.444 265.904C796.928 267.048 790.575 268.682 784.385 270.806L775.588 245.069C783.896 241.964 792.53 239.595 801.49 237.96C810.612 236.163 818.839 235.264 826.17 235.264C863.964 235.264 882.861 250.625 882.861 281.346V332.33ZM822.26 346.302C826.658 346.302 831.057 345.076 835.455 342.625C840.017 340.011 843.438 336.497 845.718 332.085V310.76H836.188C815.337 310.76 804.911 317.296 804.911 330.369C804.911 335.435 806.377 339.357 809.309 342.135C812.404 344.913 816.721 346.302 822.26 346.302Z" fill="#EF0000"/>
</svg>
